<svg width="171" height="73" viewBox="0 0 171 73" fill="none" xmlns="http://www.w3.org/2000/svg">
<path d="M42.592 42.296C42.592 42.7253 42.676 43.0987 42.844 43.416C43.0307 43.7147 43.264 43.9667 43.544 44.172C43.824 44.3587 44.1413 44.4987 44.496 44.592C44.8693 44.6853 45.252 44.732 45.644 44.732C45.924 44.732 46.2133 44.704 46.512 44.648C46.8293 44.5733 47.1093 44.4707 47.352 44.34C47.6133 44.1907 47.828 44.004 47.996 43.78C48.164 43.5373 48.248 43.2387 48.248 42.884C48.248 42.2867 47.8467 41.8387 47.044 41.54C46.26 41.2413 45.1587 40.9427 43.74 40.644C43.1613 40.5133 42.592 40.364 42.032 40.196C41.4907 40.0093 41.0053 39.776 40.576 39.496C40.1467 39.1973 39.8013 38.8333 39.54 38.404C39.2787 37.956 39.148 37.4147 39.148 36.78C39.148 35.8467 39.3253 35.0813 39.68 34.484C40.0533 33.8867 40.5387 33.42 41.136 33.084C41.7333 32.7293 42.4053 32.4867 43.152 32.356C43.8987 32.2067 44.664 32.132 45.448 32.132C46.232 32.132 46.988 32.2067 47.716 32.356C48.4627 32.5053 49.1253 32.7573 49.704 33.112C50.2827 33.4667 50.7587 33.9427 51.132 34.54C51.524 35.1187 51.7573 35.856 51.832 36.752H48.052C47.996 35.9867 47.7067 35.4733 47.184 35.212C46.6613 34.932 46.0453 34.792 45.336 34.792C45.112 34.792 44.8693 34.8107 44.608 34.848C44.3467 34.8667 44.104 34.9227 43.88 35.016C43.6747 35.1093 43.4973 35.2493 43.348 35.436C43.1987 35.604 43.124 35.8373 43.124 36.136C43.124 36.4907 43.2547 36.78 43.516 37.004C43.7773 37.228 44.1133 37.4147 44.524 37.564C44.9533 37.6947 45.4387 37.816 45.98 37.928C46.5213 38.04 47.072 38.1613 47.632 38.292C48.2107 38.4227 48.7707 38.5813 49.312 38.768C49.872 38.9547 50.3667 39.2067 50.796 39.524C51.2253 39.8227 51.5707 40.2053 51.832 40.672C52.0933 41.12 52.224 41.68 52.224 42.352C52.224 43.304 52.028 44.1067 51.636 44.76C51.2627 45.3947 50.768 45.908 50.152 46.3C49.536 46.692 48.8267 46.9627 48.024 47.112C47.24 47.28 46.4373 47.364 45.616 47.364C44.776 47.364 43.9547 47.28 43.152 47.112C42.3493 46.944 41.6307 46.664 40.996 46.272C40.38 45.88 39.8667 45.3667 39.456 44.732C39.064 44.0787 38.8493 43.2667 38.812 42.296H42.592ZM57.5191 30.284H53.5431V27.008H57.5191V30.284ZM53.5431 32.524H57.5191V47H53.5431V32.524ZM59.5298 32.524H63.3098V34.54H63.3938C63.8978 33.7 64.5511 33.0933 65.3538 32.72C66.1565 32.328 66.9778 32.132 67.8178 32.132C68.8818 32.132 69.7498 32.2813 70.4218 32.58C71.1125 32.86 71.6538 33.2613 72.0458 33.784C72.4378 34.288 72.7085 34.9133 72.8578 35.66C73.0258 36.388 73.1098 37.2 73.1098 38.096V47H69.1338V38.824C69.1338 37.6293 68.9471 36.7427 68.5738 36.164C68.2005 35.5667 67.5378 35.268 66.5858 35.268C65.5031 35.268 64.7191 35.5947 64.2338 36.248C63.7485 36.8827 63.5058 37.9373 63.5058 39.412V47H59.5298V32.524ZM81.7555 43.584C82.3155 43.584 82.8101 43.472 83.2395 43.248C83.6688 43.024 84.0235 42.7253 84.3035 42.352C84.5835 41.9787 84.7888 41.5587 84.9195 41.092C85.0688 40.6067 85.1435 40.1027 85.1435 39.58C85.1435 38.9827 85.0875 38.4227 84.9755 37.9C84.8635 37.3587 84.6768 36.8827 84.4155 36.472C84.1541 36.0613 83.8088 35.7347 83.3795 35.492C82.9501 35.2493 82.4088 35.128 81.7555 35.128C81.1955 35.128 80.7101 35.24 80.2995 35.464C79.9075 35.688 79.5715 35.996 79.2915 36.388C79.0301 36.7613 78.8341 37.2 78.7035 37.704C78.5915 38.1893 78.5355 38.7027 78.5355 39.244C78.5355 39.7667 78.5821 40.2893 78.6755 40.812C78.7875 41.316 78.9648 41.7733 79.2075 42.184C79.4688 42.5947 79.8048 42.9307 80.2155 43.192C80.6261 43.4533 81.1395 43.584 81.7555 43.584ZM88.9235 46.076C88.9235 46.6547 88.8395 47.3173 88.6715 48.064C88.5221 48.8107 88.1861 49.5013 87.6635 50.136C87.1408 50.7893 86.3848 51.34 85.3955 51.788C84.4061 52.236 83.0808 52.46 81.4195 52.46C80.7101 52.46 79.9821 52.3667 79.2355 52.18C78.5075 52.012 77.8355 51.7413 77.2195 51.368C76.6221 50.9947 76.1181 50.5093 75.7075 49.912C75.3155 49.3333 75.0915 48.6333 75.0355 47.812H78.9835C79.1701 48.5587 79.5341 49.072 80.0755 49.352C80.6168 49.6507 81.2421 49.8 81.9515 49.8C83.0715 49.8 83.8835 49.464 84.3875 48.792C84.9101 48.12 85.1621 47.2707 85.1435 46.244V44.34H85.0875C84.6581 45.1053 84.0421 45.6747 83.2395 46.048C82.4555 46.4027 81.6248 46.58 80.7475 46.58C79.6648 46.58 78.7315 46.3933 77.9475 46.02C77.1635 45.628 76.5195 45.1053 76.0155 44.452C75.5115 43.78 75.1381 43.0053 74.8955 42.128C74.6715 41.232 74.5595 40.2893 74.5595 39.3C74.5595 38.3667 74.6901 37.4707 74.9515 36.612C75.2315 35.7347 75.6328 34.9693 76.1555 34.316C76.6781 33.644 77.3221 33.112 78.0875 32.72C78.8715 32.328 79.7675 32.132 80.7755 32.132C81.7275 32.132 82.5581 32.3093 83.2675 32.664C83.9955 33.0187 84.6021 33.616 85.0875 34.456H85.1435V32.524H88.9235V46.076ZM91.1167 27.008H95.0927V47H91.1167V27.008ZM106.847 38.208C106.661 37.2 106.325 36.4347 105.839 35.912C105.373 35.3893 104.654 35.128 103.683 35.128C103.049 35.128 102.517 35.24 102.087 35.464C101.677 35.6693 101.341 35.9307 101.079 36.248C100.837 36.5653 100.659 36.9013 100.547 37.256C100.454 37.6107 100.398 37.928 100.379 38.208H106.847ZM100.379 40.728C100.435 42.016 100.762 42.9493 101.359 43.528C101.957 44.1067 102.815 44.396 103.935 44.396C104.738 44.396 105.429 44.2 106.007 43.808C106.586 43.3973 106.941 42.968 107.071 42.52H110.571C110.011 44.256 109.153 45.4973 107.995 46.244C106.838 46.9907 105.438 47.364 103.795 47.364C102.657 47.364 101.63 47.1867 100.715 46.832C99.8007 46.4587 99.0261 45.936 98.3914 45.264C97.7567 44.592 97.2621 43.7893 96.9074 42.856C96.5714 41.9227 96.4034 40.896 96.4034 39.776C96.4034 38.6933 96.5807 37.6853 96.9354 36.752C97.2901 35.8187 97.7941 35.016 98.4474 34.344C99.1007 33.6533 99.8754 33.112 100.771 32.72C101.686 32.328 102.694 32.132 103.795 32.132C105.027 32.132 106.101 32.3747 107.015 32.86C107.93 33.3267 108.677 33.9613 109.255 34.764C109.853 35.5667 110.282 36.4813 110.543 37.508C110.805 38.5347 110.898 39.608 110.823 40.728H100.379Z" fill="#ADCDEA"/>
<path d="M119.37 44.396C120.023 44.396 120.564 44.2653 120.994 44.004C121.442 43.7427 121.796 43.4067 122.058 42.996C122.338 42.5667 122.534 42.072 122.646 41.512C122.758 40.952 122.814 40.3827 122.814 39.804C122.814 39.2253 122.748 38.656 122.618 38.096C122.506 37.536 122.31 37.0413 122.03 36.612C121.75 36.164 121.386 35.8093 120.938 35.548C120.508 35.268 119.976 35.128 119.342 35.128C118.688 35.128 118.138 35.268 117.69 35.548C117.26 35.8093 116.906 36.1547 116.626 36.584C116.364 37.0133 116.178 37.508 116.066 38.068C115.954 38.628 115.898 39.2067 115.898 39.804C115.898 40.3827 115.954 40.952 116.066 41.512C116.196 42.072 116.392 42.5667 116.654 42.996C116.934 43.4067 117.298 43.7427 117.746 44.004C118.194 44.2653 118.735 44.396 119.37 44.396ZM112.062 32.524H115.842V34.372H115.898C116.383 33.588 116.999 33.0187 117.746 32.664C118.492 32.3093 119.314 32.132 120.21 32.132C121.348 32.132 122.328 32.3467 123.15 32.776C123.971 33.2053 124.652 33.7747 125.194 34.484C125.735 35.1933 126.136 36.024 126.398 36.976C126.659 37.9093 126.79 38.8893 126.79 39.916C126.79 40.8867 126.659 41.82 126.398 42.716C126.136 43.612 125.735 44.4053 125.194 45.096C124.671 45.7867 124.008 46.3373 123.206 46.748C122.422 47.1587 121.498 47.364 120.434 47.364C119.538 47.364 118.707 47.1867 117.942 46.832C117.195 46.4587 116.579 45.9173 116.094 45.208H116.038V52.068H112.062V32.524ZM127.891 36.976C127.947 36.0427 128.18 35.268 128.591 34.652C129.001 34.036 129.524 33.5413 130.159 33.168C130.793 32.7947 131.503 32.5333 132.287 32.384C133.089 32.216 133.892 32.132 134.695 32.132C135.423 32.132 136.16 32.188 136.907 32.3C137.653 32.3933 138.335 32.5893 138.951 32.888C139.567 33.1867 140.071 33.6067 140.463 34.148C140.855 34.6707 141.051 35.3707 141.051 36.248V43.78C141.051 44.4333 141.088 45.0587 141.163 45.656C141.237 46.2533 141.368 46.7013 141.555 47H137.523C137.448 46.776 137.383 46.552 137.327 46.328C137.289 46.0853 137.261 45.8427 137.243 45.6C136.608 46.2533 135.861 46.7107 135.003 46.972C134.144 47.2333 133.267 47.364 132.371 47.364C131.68 47.364 131.036 47.28 130.439 47.112C129.841 46.944 129.319 46.6827 128.871 46.328C128.423 45.9733 128.068 45.5253 127.807 44.984C127.564 44.4427 127.443 43.7987 127.443 43.052C127.443 42.2307 127.583 41.5587 127.863 41.036C128.161 40.4947 128.535 40.0653 128.983 39.748C129.449 39.4307 129.972 39.1973 130.551 39.048C131.148 38.88 131.745 38.7493 132.343 38.656C132.94 38.5627 133.528 38.488 134.107 38.432C134.685 38.376 135.199 38.292 135.647 38.18C136.095 38.068 136.449 37.9093 136.711 37.704C136.972 37.48 137.093 37.1627 137.075 36.752C137.075 36.3227 137 35.9867 136.851 35.744C136.72 35.4827 136.533 35.2867 136.291 35.156C136.067 35.0067 135.796 34.9133 135.479 34.876C135.18 34.82 134.853 34.792 134.499 34.792C133.715 34.792 133.099 34.96 132.651 35.296C132.203 35.632 131.941 36.192 131.867 36.976H127.891ZM137.075 39.916C136.907 40.0653 136.692 40.1867 136.431 40.28C136.188 40.3547 135.917 40.42 135.619 40.476C135.339 40.532 135.04 40.5787 134.723 40.616C134.405 40.6533 134.088 40.7 133.771 40.756C133.472 40.812 133.173 40.8867 132.875 40.98C132.595 41.0733 132.343 41.204 132.119 41.372C131.913 41.5213 131.745 41.7173 131.615 41.96C131.484 42.2027 131.419 42.5107 131.419 42.884C131.419 43.2387 131.484 43.5373 131.615 43.78C131.745 44.0227 131.923 44.2187 132.147 44.368C132.371 44.4987 132.632 44.592 132.931 44.648C133.229 44.704 133.537 44.732 133.855 44.732C134.639 44.732 135.245 44.6013 135.675 44.34C136.104 44.0787 136.421 43.7707 136.627 43.416C136.832 43.0427 136.953 42.6693 136.991 42.296C137.047 41.9227 137.075 41.624 137.075 41.4V39.916ZM146.097 42.296C146.097 42.7253 146.181 43.0987 146.349 43.416C146.536 43.7147 146.769 43.9667 147.049 44.172C147.329 44.3587 147.646 44.4987 148.001 44.592C148.374 44.6853 148.757 44.732 149.149 44.732C149.429 44.732 149.718 44.704 150.017 44.648C150.334 44.5733 150.614 44.4707 150.857 44.34C151.118 44.1907 151.333 44.004 151.501 43.78C151.669 43.5373 151.753 43.2387 151.753 42.884C151.753 42.2867 151.352 41.8387 150.549 41.54C149.765 41.2413 148.664 40.9427 147.245 40.644C146.666 40.5133 146.097 40.364 145.537 40.196C144.996 40.0093 144.51 39.776 144.081 39.496C143.652 39.1973 143.306 38.8333 143.045 38.404C142.784 37.956 142.653 37.4147 142.653 36.78C142.653 35.8467 142.83 35.0813 143.185 34.484C143.558 33.8867 144.044 33.42 144.641 33.084C145.238 32.7293 145.91 32.4867 146.657 32.356C147.404 32.2067 148.169 32.132 148.953 32.132C149.737 32.132 150.493 32.2067 151.221 32.356C151.968 32.5053 152.63 32.7573 153.209 33.112C153.788 33.4667 154.264 33.9427 154.637 34.54C155.029 35.1187 155.262 35.856 155.337 36.752H151.557C151.501 35.9867 151.212 35.4733 150.689 35.212C150.166 34.932 149.55 34.792 148.841 34.792C148.617 34.792 148.374 34.8107 148.113 34.848C147.852 34.8667 147.609 34.9227 147.385 35.016C147.18 35.1093 147.002 35.2493 146.853 35.436C146.704 35.604 146.629 35.8373 146.629 36.136C146.629 36.4907 146.76 36.78 147.021 37.004C147.282 37.228 147.618 37.4147 148.029 37.564C148.458 37.6947 148.944 37.816 149.485 37.928C150.026 38.04 150.577 38.1613 151.137 38.292C151.716 38.4227 152.276 38.5813 152.817 38.768C153.377 38.9547 153.872 39.2067 154.301 39.524C154.73 39.8227 155.076 40.2053 155.337 40.672C155.598 41.12 155.729 41.68 155.729 42.352C155.729 43.304 155.533 44.1067 155.141 44.76C154.768 45.3947 154.273 45.908 153.657 46.3C153.041 46.692 152.332 46.9627 151.529 47.112C150.745 47.28 149.942 47.364 149.121 47.364C148.281 47.364 147.46 47.28 146.657 47.112C145.854 46.944 145.136 46.664 144.501 46.272C143.885 45.88 143.372 45.3667 142.961 44.732C142.569 44.0787 142.354 43.2667 142.317 42.296H146.097ZM160.016 42.296C160.016 42.7253 160.1 43.0987 160.268 43.416C160.455 43.7147 160.688 43.9667 160.968 44.172C161.248 44.3587 161.565 44.4987 161.92 44.592C162.293 44.6853 162.676 44.732 163.068 44.732C163.348 44.732 163.637 44.704 163.936 44.648C164.253 44.5733 164.533 44.4707 164.776 44.34C165.037 44.1907 165.252 44.004 165.42 43.78C165.588 43.5373 165.672 43.2387 165.672 42.884C165.672 42.2867 165.271 41.8387 164.468 41.54C163.684 41.2413 162.583 40.9427 161.164 40.644C160.585 40.5133 160.016 40.364 159.456 40.196C158.915 40.0093 158.429 39.776 158 39.496C157.571 39.1973 157.225 38.8333 156.964 38.404C156.703 37.956 156.572 37.4147 156.572 36.78C156.572 35.8467 156.749 35.0813 157.104 34.484C157.477 33.8867 157.963 33.42 158.56 33.084C159.157 32.7293 159.829 32.4867 160.576 32.356C161.323 32.2067 162.088 32.132 162.872 32.132C163.656 32.132 164.412 32.2067 165.14 32.356C165.887 32.5053 166.549 32.7573 167.128 33.112C167.707 33.4667 168.183 33.9427 168.556 34.54C168.948 35.1187 169.181 35.856 169.256 36.752H165.476C165.42 35.9867 165.131 35.4733 164.608 35.212C164.085 34.932 163.469 34.792 162.76 34.792C162.536 34.792 162.293 34.8107 162.032 34.848C161.771 34.8667 161.528 34.9227 161.304 35.016C161.099 35.1093 160.921 35.2493 160.772 35.436C160.623 35.604 160.548 35.8373 160.548 36.136C160.548 36.4907 160.679 36.78 160.94 37.004C161.201 37.228 161.537 37.4147 161.948 37.564C162.377 37.6947 162.863 37.816 163.404 37.928C163.945 38.04 164.496 38.1613 165.056 38.292C165.635 38.4227 166.195 38.5813 166.736 38.768C167.296 38.9547 167.791 39.2067 168.22 39.524C168.649 39.8227 168.995 40.2053 169.256 40.672C169.517 41.12 169.648 41.68 169.648 42.352C169.648 43.304 169.452 44.1067 169.06 44.76C168.687 45.3947 168.192 45.908 167.576 46.3C166.96 46.692 166.251 46.9627 165.448 47.112C164.664 47.28 163.861 47.364 163.04 47.364C162.2 47.364 161.379 47.28 160.576 47.112C159.773 46.944 159.055 46.664 158.42 46.272C157.804 45.88 157.291 45.3667 156.88 44.732C156.488 44.0787 156.273 43.2667 156.236 42.296H160.016Z" fill="#4A7FB3"/>
<g clip-path="url(#clip0_319_5)">
<path d="M7.53899 39.5124C14.3223 34.7526 21.8754 31.0054 29.8769 28.8043C31.5461 28.433 33.2569 28.0741 34.9712 28.0003C35.2744 27.9872 33.0934 28.4202 32.4086 28.6783C24.1747 30.9233 16.385 34.7589 9.4626 39.7367C6.62717 41.9097 2.87899 44.8803 1.53635 48.0099C0.460736 50.5031 3.8923 50.8273 6.54368 51.6284C-5.33239 51.2623 1.41605 44.4582 7.53899 39.5124ZM3.23273 46.1287C3.9909 45.3705 4.74907 44.6124 5.50724 43.8542C6.33402 44.4559 7.07459 45.2136 8.10126 45.4538C8.71347 45.743 9.34947 45.9006 10.0287 45.8196C13.5811 46.0848 14.2524 42.6906 12.1406 41.7274C11.2545 41.2675 10.0694 40.8816 9.23599 40.3851C10.4261 39.4668 11.7292 38.7065 12.9764 37.8686C14.2858 38.3 15.6885 38.7944 16.6452 39.8048C16.9817 40.2978 17.3182 40.7908 17.6547 41.2838C17.6867 39.2659 17.7446 37.122 17.7766 35.1041C21.3819 33.1016 25.2404 31.7436 29.0593 30.1985C29.77 30.5747 30.6448 31.0225 31.238 31.6375C31.5852 32.0113 32.1141 32.3438 32.6242 33.5166C32.9211 34.4232 32.9976 34.9355 33.0922 35.7152C33.1509 36.8164 33.1783 37.4454 32.8285 38.4631C32.5855 39.1664 32.1241 40.2596 31.5437 40.7572C30.3651 42.11 28.6886 42.6606 26.9042 42.8368H22.0496V49.3287H17.6631C17.6585 48.0713 17.6539 46.8138 17.6494 45.5564C17.2045 46.7085 16.3377 47.6864 15.4119 48.4651C13.8951 49.2596 12.2042 49.8362 10.4743 49.6612C4.85739 49.5367 2.9597 46.5587 3.23273 46.1287ZM27.6204 38.4424C28.1348 37.9813 28.1953 37.8225 28.4315 37.2171C28.6565 36.557 28.8724 35.7095 28.6168 35.1242C28.3568 34.4483 28.0125 34.1379 27.2636 33.8306C26.2823 33.428 25.4738 33.6203 24.5738 33.5376H22.0495V38.9261L26.725 38.889C26.9632 38.7314 27.4077 38.633 27.6204 38.4424ZM3.81717 33.6553C3.99243 31.5842 6.92953 29.3043 9.57236 29.2145C10.6247 29.1555 11.6487 29.1629 12.709 29.3357C14.025 29.5502 15.2707 30.2872 16.3763 31.0556C16.8753 31.4415 17.1195 31.9844 17.1195 31.9844C17.1195 31.9844 14.7699 33.391 13.8133 33.9009C8.79516 31.2182 8.28768 34.4527 8.36382 34.9619C8.44836 35.5499 9.83333 36.4596 9.83333 36.4596C8.53025 37.5765 8.13389 37.8429 6.71604 38.8349C4.87652 37.203 3.91139 36.6761 3.81717 33.6553ZM17.6472 29.4303C17.6472 29.4303 20.6952 29.4744 22.1066 29.5133C20.6416 30.3122 19.2539 31.0195 17.7257 31.783C17.7096 30.9171 17.691 30.4654 17.6472 29.4303Z" fill="#4A7FB3"/>
</g>
<defs>
<clipPath id="clip0_319_5">
<rect width="35" height="23.6284" fill="white" transform="translate(0 28)"/>
</clipPath>
</defs>
</svg>
