<svg width="42" height="42" viewBox="0 0 42 42" fill="none" xmlns="http://www.w3.org/2000/svg">
<path d="M21 13.125H23.625M21 18.375H23.625M10.5 23.625H23.625M10.5 28.875H23.625M28.875 13.125H34.7812C35.868 13.125 36.75 14.007 36.75 15.0938V31.5C36.75 32.5443 36.3352 33.5458 35.5967 34.2842C34.8583 35.0227 33.8568 35.4375 32.8125 35.4375M28.875 13.125V31.5C28.875 32.5443 29.2898 33.5458 30.0283 34.2842C30.7667 35.0227 31.7682 35.4375 32.8125 35.4375M28.875 13.125V8.53125C28.875 7.4445 27.993 6.5625 26.9062 6.5625H7.21875C6.132 6.5625 5.25 7.4445 5.25 8.53125V31.5C5.25 32.5443 5.66484 33.5458 6.40327 34.2842C7.14169 35.0227 8.14321 35.4375 9.1875 35.4375H32.8125M10.5 13.125H15.75V18.375H10.5V13.125Z" stroke="white" stroke-width="1.5" stroke-linecap="round" stroke-linejoin="round"/>
</svg>
